<?xml version="1.0" encoding="UTF-8" ?>
<!DOCTYPE svg PUBLIC "-//W3C//DTD SVG 1.1//EN" "http://www.w3.org/Graphics/SVG/1.1/DTD/svg11.dtd">
<svg width="640pt" height="640pt" viewBox="0 0 640 640" version="1.1" xmlns="http://www.w3.org/2000/svg">
<g id="#235464ff">
<path fill="#235464" opacity="1.00" d=" M 333.77 54.79 C 343.67 51.99 354.01 53.23 364.15 53.00 C 362.38 55.03 360.68 57.13 359.39 59.51 C 363.76 60.59 368.23 61.25 372.58 62.41 C 387.16 66.13 402.57 66.55 416.60 72.34 C 430.90 78.97 445.40 86.21 456.78 97.34 C 454.79 97.86 452.81 98.35 450.84 98.90 C 455.48 101.60 460.61 103.21 465.42 105.55 C 475.19 110.14 484.72 115.28 493.71 121.27 C 500.54 125.83 508.42 128.37 515.55 132.39 C 508.88 138.25 499.57 136.60 491.51 138.39 C 494.78 144.27 500.35 148.38 503.87 154.08 C 509.16 162.72 514.61 171.26 520.58 179.45 C 521.62 181.46 524.05 183.50 523.19 185.95 C 519.67 185.01 516.26 183.69 512.72 182.79 C 514.50 190.08 519.70 195.92 521.46 203.22 C 519.27 202.84 517.10 202.37 514.93 201.92 C 515.63 204.24 516.31 206.57 516.97 208.91 C 515.32 209.43 513.67 209.93 512.01 210.40 C 512.31 217.80 511.42 225.17 510.45 232.49 C 509.06 238.80 507.39 245.14 507.99 251.67 C 517.81 256.14 526.54 265.12 527.75 276.24 C 528.48 284.48 528.55 293.16 524.78 300.75 C 518.00 315.16 505.48 326.55 491.03 333.05 C 485.81 335.72 480.10 337.26 474.88 339.90 C 472.32 342.12 470.98 345.37 469.24 348.22 C 465.44 355.43 459.82 361.40 454.57 367.55 C 445.46 378.18 434.43 386.91 423.31 395.34 C 416.98 400.05 409.65 403.09 402.68 406.69 C 397.66 409.31 392.13 410.65 386.97 412.92 C 386.89 420.71 387.11 429.90 393.46 435.44 C 398.34 440.25 405.42 440.96 411.36 443.88 C 426.38 448.98 441.83 453.38 455.64 461.39 C 459.95 463.93 463.26 467.75 466.79 471.23 C 475.48 479.91 479.77 491.68 485.99 502.04 C 492.16 512.32 497.00 523.35 503.54 533.42 C 506.26 537.64 510.30 541.63 510.26 547.01 C 510.52 551.29 508.23 555.08 507.29 559.13 C 507.31 561.37 508.79 563.32 509.63 565.36 C 512.57 570.81 514.04 576.87 516.47 582.54 C 520.06 590.90 522.74 599.60 525.79 608.17 C 529.18 618.73 532.87 629.21 535.52 640.00 L 529.24 640.00 C 529.21 639.54 529.14 638.62 529.10 638.16 C 528.86 637.61 528.37 636.51 528.12 635.96 C 527.47 633.32 526.72 630.71 525.95 628.11 C 525.73 627.55 525.29 626.43 525.07 625.87 C 524.14 622.57 523.07 619.33 521.97 616.09 C 521.75 615.53 521.30 614.41 521.08 613.85 C 518.66 606.05 515.84 598.38 513.26 590.64 C 509.64 580.36 506.41 569.92 501.80 560.03 C 492.86 566.68 482.92 571.74 473.28 577.25 C 469.36 579.42 465.18 581.06 461.14 582.96 C 462.70 587.11 464.86 590.98 467.15 594.76 C 469.75 598.99 470.96 603.89 473.49 608.16 C 477.93 618.85 482.61 629.45 487.39 640.00 L 477.78 640.00 C 475.83 632.41 472.37 625.35 470.15 617.85 C 468.55 612.90 466.22 608.23 464.23 603.44 C 463.37 601.44 462.45 599.46 461.44 597.53 C 461.41 600.07 461.45 602.62 461.83 605.14 C 464.66 616.68 466.77 628.38 469.24 640.00 L 462.47 640.00 C 461.68 627.51 458.62 615.30 455.84 603.14 C 455.57 597.61 455.20 591.93 453.08 586.75 C 451.51 584.60 448.79 583.72 446.64 582.29 C 451.69 577.76 457.93 574.91 464.04 572.13 C 471.38 569.78 477.32 564.68 484.06 561.14 C 490.53 557.74 497.21 554.22 502.20 548.77 C 503.26 545.48 500.42 542.75 498.73 540.27 C 493.03 533.49 489.93 525.11 485.53 517.53 C 480.77 509.46 477.08 500.81 472.27 492.77 C 468.41 486.42 464.99 479.64 459.56 474.44 C 454.73 469.80 449.44 465.43 443.20 462.84 C 442.66 462.58 441.58 462.06 441.05 461.81 C 434.95 458.88 428.56 456.57 422.06 454.74 C 418.04 453.56 414.42 451.06 410.18 450.71 C 408.32 451.76 408.07 454.32 407.01 456.06 C 403.17 464.15 395.42 469.38 388.16 474.15 C 379.49 479.94 369.97 484.28 360.41 488.37 C 351.94 491.08 342.82 490.61 334.07 489.84 C 333.14 488.76 332.05 488.54 330.80 489.18 C 322.03 487.14 313.09 483.89 306.51 477.50 C 302.51 473.70 300.79 468.35 299.02 463.30 C 293.85 465.30 289.68 469.03 285.14 472.11 C 276.40 478.15 266.73 483.79 261.07 493.13 C 256.40 500.95 253.58 509.67 249.93 517.97 C 249.68 518.52 249.20 519.62 248.96 520.17 C 245.84 528.06 242.83 536.00 239.93 543.99 C 239.69 544.54 239.22 545.63 238.98 546.18 C 235.66 554.55 231.63 562.61 227.22 570.45 C 225.49 573.03 228.31 575.36 230.05 576.97 C 235.36 581.18 241.26 584.59 247.07 588.05 C 251.56 590.91 256.47 593.01 261.45 594.85 C 259.27 604.43 261.31 614.29 260.15 623.96 C 259.55 629.28 259.53 634.65 259.51 640.00 L 253.92 640.00 C 254.47 632.69 254.12 625.31 255.34 618.06 C 256.34 611.89 256.74 605.64 256.23 599.41 C 253.78 598.96 251.28 598.67 248.91 597.87 C 245.45 596.72 242.55 594.26 238.95 593.48 C 237.04 597.57 237.80 602.16 237.32 606.51 C 236.57 613.72 235.65 620.92 235.20 628.16 C 234.70 632.08 234.61 636.04 234.56 640.00 L 227.79 640.00 C 227.94 637.82 228.08 635.65 228.45 633.51 C 230.98 618.93 232.90 604.23 234.30 589.51 C 228.95 584.95 221.33 582.26 218.44 575.38 C 216.83 572.00 219.46 568.81 220.99 565.98 C 224.84 559.79 227.82 553.12 230.27 546.27 C 238.56 526.87 245.29 506.77 255.02 488.01 C 257.97 482.13 263.57 478.44 268.66 474.61 C 279.56 466.43 291.20 459.18 303.71 453.71 C 307.96 451.69 313.02 449.52 314.78 444.79 C 315.60 439.20 313.98 433.64 312.93 428.19 C 303.88 426.93 294.71 427.21 285.74 425.31 C 270.05 424.11 254.80 419.94 239.89 415.08 C 231.52 412.55 223.94 408.13 216.81 403.17 C 207.21 397.33 200.16 388.43 192.72 380.22 C 187.58 381.60 182.41 383.38 177.01 383.09 C 169.58 383.42 162.53 380.69 155.60 378.40 C 144.79 374.90 134.66 368.24 128.40 358.61 C 122.10 348.26 121.17 335.19 124.49 323.68 C 125.53 319.78 127.60 316.24 130.20 313.17 C 131.75 310.99 133.95 308.85 133.93 305.98 C 134.16 295.42 134.23 284.84 133.99 274.28 C 133.04 273.94 132.09 273.61 131.15 273.27 C 129.52 274.81 128.25 277.10 125.84 277.43 C 124.59 277.17 123.90 276.39 123.74 275.10 C 124.16 269.55 127.03 264.55 128.20 259.13 C 130.45 253.17 129.60 246.64 131.61 240.62 C 133.39 235.45 134.26 229.97 133.98 224.50 C 126.59 228.51 120.75 235.19 112.36 237.37 C 113.51 232.14 116.60 227.68 119.13 223.05 C 128.44 208.71 129.85 190.34 141.15 177.14 C 142.61 175.23 143.42 172.95 144.37 170.77 C 139.77 171.48 135.16 172.33 130.48 171.99 C 136.69 164.17 146.62 161.29 154.17 155.21 C 159.52 151.16 161.56 144.53 165.21 139.17 C 168.12 134.59 172.81 131.51 175.65 126.87 C 168.58 127.78 161.66 130.10 154.44 129.09 C 156.78 126.46 159.58 124.33 162.56 122.48 C 166.97 119.69 170.48 115.76 174.64 112.64 C 180.58 108.28 185.70 102.89 191.97 98.95 C 197.58 95.11 204.10 93.03 210.26 90.29 C 215.01 88.20 219.79 86.07 224.86 84.88 C 231.35 83.22 238.06 82.61 244.48 80.68 C 241.12 78.78 237.52 77.34 233.84 76.19 C 228.82 74.72 224.19 72.11 219.04 71.07 C 218.27 70.00 217.51 68.92 216.77 67.84 C 224.25 67.22 231.76 67.17 239.26 67.69 C 243.81 68.39 248.37 69.30 253.00 69.18 C 261.96 68.96 270.79 70.77 279.72 71.09 C 279.12 66.57 274.23 66.00 270.87 64.31 C 274.83 63.21 278.93 62.72 283.05 62.91 C 289.40 62.72 295.01 66.08 300.82 68.13 C 310.46 61.01 321.98 56.67 333.77 54.79 M 341.31 177.66 C 341.93 180.55 343.47 183.10 345.75 185.00 C 346.50 187.34 347.47 189.62 348.16 191.99 C 340.57 191.74 334.13 187.29 327.29 184.54 C 327.03 183.27 325.15 183.22 324.20 182.62 C 325.07 186.43 326.90 189.97 327.68 193.80 C 326.49 195.73 324.60 198.14 322.04 197.49 C 314.43 196.42 309.79 189.28 302.70 186.96 C 302.43 194.28 303.86 202.10 300.27 208.86 C 295.83 208.57 292.38 205.62 288.90 203.21 C 284.65 197.42 280.72 191.40 276.21 185.80 C 275.37 189.58 274.38 193.44 274.94 197.34 C 273.17 197.19 272.94 200.32 274.47 200.83 C 274.36 201.60 274.15 203.15 274.05 203.92 C 272.36 205.51 270.62 207.04 268.85 208.53 C 265.83 203.60 263.81 198.23 262.13 192.72 C 259.83 197.73 258.74 203.18 256.65 208.28 C 253.38 204.81 252.21 200.12 250.80 195.70 C 248.01 199.94 246.66 204.88 244.32 209.34 C 243.14 209.94 241.76 209.79 240.49 209.99 C 238.97 205.50 238.08 200.85 236.89 196.29 C 235.98 197.02 235.34 197.94 234.96 199.03 C 233.12 204.43 228.74 208.39 226.47 213.58 C 225.92 213.67 224.81 213.85 224.26 213.93 C 224.29 208.76 224.21 203.58 223.32 198.47 C 220.26 201.20 218.74 205.11 216.47 208.44 C 212.97 213.47 210.76 219.79 205.09 222.89 C 203.86 220.54 202.64 218.19 201.35 215.87 C 198.97 219.74 198.02 224.21 196.36 228.38 C 193.73 233.73 191.40 239.34 190.22 245.18 L 189.34 245.34 L 188.90 246.33 L 189.38 247.10 C 186.84 252.22 184.14 257.70 183.32 263.37 C 180.46 267.49 178.84 272.33 177.86 277.21 C 179.76 274.61 181.75 272.07 183.74 269.53 C 183.56 271.82 182.78 274.00 182.11 276.18 C 180.15 281.91 178.87 287.87 176.43 293.43 C 174.97 298.72 172.40 303.69 171.55 309.14 C 171.14 312.03 170.49 314.87 169.98 317.74 C 171.02 317.18 172.07 316.62 173.12 316.08 C 173.36 318.85 173.63 321.64 174.29 324.36 C 173.56 330.11 172.58 336.41 175.34 341.79 C 175.53 341.31 175.91 340.35 176.10 339.86 C 175.87 342.57 177.49 344.88 178.65 347.20 C 180.87 351.34 182.47 355.85 185.34 359.63 C 191.30 367.96 196.89 376.61 203.75 384.23 C 205.79 386.12 207.53 388.72 210.29 389.58 C 211.80 391.45 213.58 393.09 215.56 394.46 C 225.28 401.52 236.23 406.87 247.76 410.24 C 256.27 412.63 264.71 415.49 273.54 416.45 C 278.43 416.97 283.30 418.32 288.23 417.84 C 288.80 419.48 289.71 419.69 290.96 418.47 C 293.19 419.50 295.84 419.14 298.23 418.92 C 298.79 420.54 299.70 420.75 300.96 419.52 C 307.20 420.47 313.59 420.90 319.92 421.32 C 319.70 424.19 318.99 427.11 319.65 429.98 C 320.50 434.78 322.43 439.81 320.68 444.65 C 318.19 452.42 312.29 458.35 306.15 463.42 C 305.15 466.73 308.10 469.59 310.43 471.53 C 323.05 482.17 340.95 484.32 356.65 480.76 C 368.37 477.31 378.69 470.47 388.76 463.74 C 393.38 460.73 397.38 456.77 400.20 452.01 C 397.38 445.93 392.50 440.90 386.68 437.63 C 384.68 436.46 383.44 434.37 382.82 432.20 C 380.90 425.67 380.88 418.76 381.26 412.02 C 381.23 409.96 382.62 408.30 384.39 407.44 C 394.24 401.75 405.19 398.08 414.60 391.59 C 424.62 384.79 434.43 377.56 443.14 369.12 C 450.40 360.68 458.55 352.88 464.29 343.25 C 467.79 337.60 470.74 331.63 473.67 325.67 C 476.16 320.67 476.92 315.07 478.86 309.88 C 480.35 305.76 481.54 301.41 481.26 296.99 C 481.14 293.80 479.89 290.57 481.05 287.44 C 482.51 290.16 482.36 293.28 482.52 296.28 C 483.39 292.79 483.71 289.19 484.60 285.71 C 484.96 284.55 485.19 282.92 486.57 282.54 C 490.27 281.03 494.29 280.45 498.27 280.32 C 498.91 281.63 499.58 282.94 500.28 284.23 L 501.06 284.40 C 497.21 287.15 492.48 287.80 487.87 287.90 C 487.69 296.28 487.14 304.78 484.80 312.87 C 483.68 317.55 481.29 322.13 481.26 326.95 C 478.65 326.73 480.99 330.94 481.88 328.38 C 493.80 324.49 503.96 316.49 512.38 307.39 C 515.79 302.82 519.33 297.66 519.85 291.87 L 520.72 291.66 L 521.12 290.67 L 520.62 289.92 C 521.74 286.95 521.36 283.68 521.38 280.58 L 520.78 281.37 C 521.72 279.77 521.36 277.79 521.28 276.03 C 520.25 268.48 515.02 262.31 509.19 257.78 C 502.89 252.26 492.21 254.01 486.88 260.06 C 483.93 266.64 486.16 274.10 485.13 281.04 C 483.80 280.47 482.50 279.88 481.21 279.28 C 481.52 281.62 481.93 284.04 481.29 286.37 C 478.41 282.51 475.36 278.63 473.75 274.05 C 473.84 273.49 474.01 272.38 474.10 271.82 C 476.23 274.02 478.17 276.41 480.49 278.44 C 478.71 272.20 473.93 267.49 471.68 261.46 C 472.89 261.67 474.12 261.89 475.35 262.12 C 473.88 259.45 472.25 256.88 470.39 254.47 C 468.63 252.10 466.92 249.70 465.10 247.38 C 466.05 246.98 467.00 246.58 467.96 246.18 C 466.26 241.64 465.90 236.63 463.38 232.40 C 461.21 228.67 458.86 224.99 455.82 221.91 L 455.66 221.16 C 450.07 212.99 443.65 205.41 436.74 198.33 C 435.83 197.56 434.84 196.92 433.79 196.39 C 433.78 200.57 434.53 204.72 434.25 208.91 C 432.31 208.20 430.32 207.55 428.63 206.36 C 422.37 201.93 416.50 197.01 410.82 191.87 C 407.61 192.42 404.35 193.14 401.08 192.64 C 391.28 190.85 382.09 186.86 373.20 182.50 C 373.89 185.61 375.53 188.34 376.97 191.13 C 375.22 191.23 373.46 191.20 371.71 191.26 L 371.60 190.37 C 371.16 190.34 370.29 190.27 369.85 190.24 L 368.97 190.23 C 368.66 189.91 368.03 189.29 367.71 188.97 L 366.97 189.49 C 360.63 186.17 353.98 183.40 347.50 180.35 C 345.48 179.35 343.42 178.43 341.31 177.66 M 138.90 311.91 C 135.02 315.71 131.57 320.68 131.19 326.23 C 129.52 326.74 129.26 327.64 130.43 328.95 C 129.11 333.72 129.12 339.27 130.46 344.04 C 129.28 345.33 129.54 346.24 131.22 346.74 C 131.53 352.90 136.19 357.58 140.47 361.53 C 146.79 367.74 155.24 371.02 163.59 373.50 C 165.74 374.06 167.89 374.93 170.15 374.82 L 170.34 375.70 L 171.33 376.11 L 172.09 375.62 C 176.88 376.84 182.75 376.84 186.68 373.38 C 181.61 364.21 176.13 355.14 172.98 345.08 C 172.63 341.95 172.40 338.79 171.41 335.79 C 169.41 326.66 163.97 318.90 158.38 311.62 C 157.18 310.35 155.92 308.65 154.01 308.60 C 148.86 308.31 142.89 308.02 138.90 311.91 Z" />
<path fill="#235464" opacity="1.00" d=" M 379.02 220.29 C 386.13 218.76 393.35 216.24 400.71 217.28 C 404.81 219.40 405.19 225.84 401.66 228.67 C 399.24 229.97 396.42 230.14 393.81 230.86 C 387.22 232.27 380.77 234.58 374.02 235.05 C 373.51 235.21 372.51 235.55 372.01 235.72 C 366.23 237.26 360.05 238.98 354.19 236.82 C 353.74 234.03 352.45 230.89 354.21 228.29 C 356.53 225.40 360.42 224.71 363.81 223.84 C 368.20 222.88 372.45 221.12 376.97 220.86 C 377.48 220.72 378.51 220.43 379.02 220.29 Z" />
<path fill="#235464" opacity="1.00" d=" M 340.07 222.06 C 341.29 222.09 342.51 222.13 343.74 222.17 C 345.71 227.39 348.31 232.82 347.60 238.55 C 346.50 242.06 340.66 241.32 340.47 237.66 C 339.75 232.51 339.10 227.24 340.07 222.06 Z" />
<path fill="#235464" opacity="1.00" d=" M 276.37 236.65 C 281.72 237.95 280.74 244.21 280.61 248.38 C 279.12 247.32 276.97 246.59 276.46 244.65 C 276.20 241.99 276.36 239.31 276.37 236.65 Z" />
<path fill="#235464" opacity="1.00" d=" M 229.00 246.24 C 234.20 245.25 239.48 243.67 244.81 244.23 C 248.42 245.25 249.16 249.71 248.83 252.92 C 248.69 256.13 245.61 258.09 242.77 258.74 C 238.56 259.69 234.33 260.72 230.03 261.14 C 229.52 261.29 228.50 261.59 227.99 261.74 C 225.03 262.31 222.06 263.01 219.03 263.02 C 218.53 263.18 217.52 263.50 217.01 263.66 C 213.32 264.20 209.58 264.69 206.08 266.06 C 202.74 267.15 198.78 268.72 195.53 266.54 C 194.49 263.52 193.25 260.42 193.30 257.20 C 193.50 254.61 196.10 253.83 198.20 253.24 C 207.66 250.61 217.15 247.76 226.97 246.86 C 227.48 246.70 228.50 246.39 229.00 246.24 Z" />
<path fill="#235464" opacity="1.00" d=" M 391.44 259.47 C 393.47 258.67 396.07 258.79 397.84 260.16 C 400.89 263.53 398.12 270.76 393.08 269.31 C 388.53 268.61 387.47 261.53 391.44 259.47 Z" />
<path fill="#235464" opacity="1.00" d=" M 120.91 283.53 C 121.07 280.80 120.75 277.49 122.66 275.33 C 122.91 277.07 124.13 278.11 125.88 278.22 L 126.70 278.66 C 124.99 280.53 123.02 282.13 120.91 283.53 Z" />
<path fill="#235464" opacity="1.00" d=" M 311.17 277.43 C 314.51 279.47 315.26 283.94 314.03 287.43 C 310.03 285.65 310.91 280.95 311.17 277.43 Z" />
<path fill="#235464" opacity="1.00" d=" M 230.39 288.24 C 233.77 286.18 239.49 288.51 238.87 292.93 C 239.32 296.13 235.66 297.79 233.01 297.94 C 228.18 297.91 226.84 290.89 230.39 288.24 Z" />
<path fill="#235464" opacity="1.00" d=" M 442.98 302.26 C 443.39 296.30 448.03 291.79 451.89 287.66 C 452.43 293.69 449.31 300.74 442.98 302.26 Z" />
<path fill="#235464" opacity="1.00" d=" M 454.59 289.98 C 458.87 291.29 462.85 293.36 466.82 295.40 C 466.83 296.60 466.85 297.81 466.87 299.02 C 464.17 298.22 461.36 297.57 458.98 296.00 C 456.82 294.59 455.77 292.15 454.59 289.98 Z" />
<path fill="#235464" opacity="1.00" d=" M 440.30 315.58 C 447.43 311.20 455.35 307.11 464.00 308.15 C 463.85 309.26 463.69 310.37 463.54 311.48 C 456.15 312.51 449.16 315.06 442.17 317.56 C 441.54 316.89 440.92 316.23 440.30 315.58 Z" />
<path fill="#235464" opacity="1.00" d=" M 153.96 346.23 C 153.49 341.53 158.51 340.51 162.02 339.63 C 164.88 339.20 167.36 341.08 169.90 342.06 C 169.80 342.67 169.59 343.88 169.49 344.49 C 164.46 346.07 159.22 346.80 153.96 346.23 Z" />
<path fill="#235464" opacity="1.00" d=" M 320.84 374.81 C 326.81 372.95 333.08 370.69 339.42 371.53 C 339.79 372.84 339.93 374.21 340.15 375.57 C 333.15 375.81 326.28 377.62 319.26 377.52 C 319.65 376.84 320.44 375.49 320.84 374.81 Z" />
</g>
<g id="#f7cdb0ff">
<path fill="#f7cdb0" opacity="1.00" d=" M 210.11 67.62 C 219.76 66.60 229.62 66.44 239.26 67.69 C 231.76 67.17 224.25 67.22 216.77 67.84 C 217.51 68.92 218.27 70.00 219.04 71.07 C 215.95 70.25 212.83 69.34 210.11 67.62 Z" />
<path fill="#f7cdb0" opacity="1.00" d=" M 341.31 177.66 C 343.42 178.43 345.48 179.35 347.50 180.35 C 346.88 181.89 346.27 183.43 345.75 185.00 C 343.47 183.10 341.93 180.55 341.31 177.66 Z" />
<path fill="#f7cdb0" opacity="1.00" d=" M 324.20 182.62 C 325.15 183.22 327.03 183.27 327.29 184.54 C 327.79 190.54 330.60 196.15 330.11 202.25 C 320.47 201.12 313.18 194.18 304.97 189.73 C 303.77 196.90 304.38 204.18 304.13 211.41 C 301.61 211.21 299.00 211.35 296.60 210.50 C 293.29 209.02 291.00 206.04 288.90 203.21 C 292.38 205.62 295.83 208.57 300.27 208.86 C 303.86 202.10 302.43 194.28 302.70 186.96 C 309.79 189.28 314.43 196.42 322.04 197.49 C 324.60 198.14 326.49 195.73 327.68 193.80 C 326.90 189.97 325.07 186.43 324.20 182.62 Z" />
<path fill="#f7cdb0" opacity="1.00" d=" M 366.97 189.49 L 367.71 188.97 C 368.03 189.29 368.66 189.91 368.97 190.23 C 368.47 190.04 367.47 189.67 366.97 189.49 Z" />
<path fill="#f7cdb0" opacity="1.00" d=" M 369.85 190.24 C 370.29 190.27 371.16 190.34 371.60 190.37 L 371.71 191.26 C 371.25 191.00 370.31 190.49 369.85 190.24 Z" />
<path fill="#f7cdb0" opacity="1.00" d=" M 274.47 200.83 C 272.94 200.32 273.17 197.19 274.94 197.34 C 275.24 198.53 274.98 199.74 274.47 200.83 Z" />
<path fill="#f7cdb0" opacity="1.00" d=" M 268.85 208.53 C 270.62 207.04 272.36 205.51 274.05 203.92 C 273.87 206.36 273.62 208.80 273.31 211.23 C 272.51 211.20 270.91 211.13 270.11 211.10 C 269.69 210.24 269.27 209.39 268.85 208.53 Z" />
<path fill="#f7cdb0" opacity="1.00" d=" M 377.26 219.98 L 378.32 219.69 L 379.02 220.29 C 378.51 220.43 377.48 220.72 376.97 220.86 L 377.26 219.98 Z" />
<path fill="#f7cdb0" opacity="1.00" d=" M 455.82 221.91 C 458.86 224.99 461.21 228.67 463.38 232.40 C 465.90 236.63 466.26 241.64 467.96 246.18 C 467.00 246.58 466.05 246.98 465.10 247.38 C 459.23 240.29 456.00 231.08 455.82 221.91 Z" />
<path fill="#f7cdb0" opacity="1.00" d=" M 372.01 235.72 C 372.51 235.55 373.51 235.21 374.02 235.05 L 373.77 235.93 L 372.73 236.28 L 372.01 235.72 Z" />
<path fill="#f7cdb0" opacity="1.00" d=" M 189.34 245.34 L 190.22 245.18 C 190.01 245.66 189.59 246.62 189.38 247.10 L 188.90 246.33 L 189.34 245.34 Z" />
<path fill="#f7cdb0" opacity="1.00" d=" M 227.24 245.98 L 228.28 245.66 L 229.00 246.24 C 228.50 246.39 227.48 246.70 226.97 246.86 L 227.24 245.98 Z" />
<path fill="#f7cdb0" opacity="1.00" d=" M 465.68 255.18 C 467.24 254.94 468.81 254.70 470.39 254.47 C 472.25 256.88 473.88 259.45 475.35 262.12 C 474.12 261.89 472.89 261.67 471.68 261.46 C 473.93 267.49 478.71 272.20 480.49 278.44 C 478.17 276.41 476.23 274.02 474.10 271.82 C 474.01 272.38 473.84 273.49 473.75 274.05 C 472.46 267.21 468.93 261.22 465.68 255.18 Z" />
<path fill="#f7cdb0" opacity="1.00" d=" M 486.88 260.06 C 492.21 254.01 502.89 252.26 509.19 257.78 C 515.02 262.31 520.25 268.48 521.28 276.03 C 521.36 277.79 521.72 279.77 520.78 281.37 C 518.60 284.39 515.95 287.03 513.22 289.54 C 509.43 287.27 505.48 285.09 501.06 284.40 L 500.28 284.23 C 499.58 282.94 498.91 281.63 498.27 280.32 C 494.29 280.45 490.27 281.03 486.57 282.54 C 485.19 282.92 484.96 284.55 484.60 285.71 C 483.71 289.19 483.39 292.79 482.52 296.28 C 482.36 293.28 482.51 290.16 481.05 287.44 C 481.11 287.17 481.23 286.64 481.29 286.37 C 481.93 284.04 481.52 281.62 481.21 279.28 C 482.50 279.88 483.80 280.47 485.13 281.04 C 486.16 274.10 483.93 266.64 486.88 260.06 Z" />
<path fill="#f7cdb0" opacity="1.00" d=" M 227.99 261.74 C 228.50 261.59 229.52 261.29 230.03 261.14 L 229.76 262.02 L 228.70 262.33 L 227.99 261.74 Z" />
<path fill="#f7cdb0" opacity="1.00" d=" M 217.01 263.66 C 217.52 263.50 218.53 263.18 219.03 263.02 L 218.77 263.90 L 217.73 264.23 L 217.01 263.66 Z" />
<path fill="#f7cdb0" opacity="1.00" d=" M 177.86 277.21 C 178.84 272.33 180.46 267.49 183.32 263.37 C 183.54 265.41 183.94 267.47 183.74 269.53 C 181.75 272.07 179.76 274.61 177.86 277.21 Z" />
<path fill="#f7cdb0" opacity="1.00" d=" M 303.61 268.80 C 305.74 269.84 301.95 273.75 300.86 271.63 C 301.25 270.37 302.35 269.22 303.61 268.80 Z" />
<path fill="#f7cdb0" opacity="1.00" d=" M 398.88 276.82 C 406.83 272.92 414.76 267.74 424.01 268.17 C 432.64 268.63 441.77 269.22 449.47 273.55 C 452.36 275.98 454.55 279.17 457.53 281.54 C 461.96 285.12 464.17 290.52 466.82 295.40 C 462.85 293.36 458.87 291.29 454.59 289.98 C 455.77 292.15 456.82 294.59 458.98 296.00 C 461.36 297.57 464.17 298.22 466.87 299.02 L 467.72 299.26 C 473.79 310.67 471.55 324.65 465.71 335.66 C 462.51 340.67 458.01 344.64 454.33 349.27 C 452.78 351.08 451.48 353.15 449.58 354.63 C 437.29 358.28 424.16 359.13 411.59 356.45 C 406.78 355.13 402.77 352.02 398.60 349.44 C 393.87 346.50 390.16 342.12 387.78 337.10 C 383.56 328.35 380.28 318.64 381.48 308.79 C 381.74 301.03 384.06 293.17 389.16 287.18 C 392.29 283.64 394.45 278.97 398.88 276.82 M 442.98 302.26 C 449.31 300.74 452.43 293.69 451.89 287.66 C 448.03 291.79 443.39 296.30 442.98 302.26 M 440.30 315.58 C 440.92 316.23 441.54 316.89 442.17 317.56 C 449.16 315.06 456.15 312.51 463.54 311.48 C 463.69 310.37 463.85 309.26 464.00 308.15 C 455.35 307.11 447.43 311.20 440.30 315.58 Z" />
<path fill="#f7cdb0" opacity="1.00" d=" M 519.85 291.87 C 520.04 291.38 520.43 290.40 520.62 289.92 L 521.12 290.67 L 520.72 291.66 L 519.85 291.87 Z" />
<path fill="#f7cdb0" opacity="1.00" d=" M 203.96 306.90 C 218.79 301.83 236.67 304.78 247.91 316.09 C 252.27 321.00 255.09 327.04 258.27 332.73 C 262.39 340.19 261.64 349.07 260.43 357.19 C 259.29 366.09 253.17 373.09 247.89 379.92 C 243.54 385.55 236.15 386.64 229.90 389.02 C 226.96 389.96 224.14 391.60 221.01 391.73 C 217.39 391.25 213.89 390.14 210.29 389.58 C 207.53 388.72 205.79 386.12 203.75 384.23 C 196.89 376.61 191.30 367.96 185.34 359.63 C 182.47 355.85 180.87 351.34 178.65 347.20 C 177.49 344.88 175.87 342.57 176.10 339.86 C 178.61 333.14 181.79 326.68 185.45 320.52 C 189.47 313.66 196.96 309.98 203.96 306.90 Z" />
<path fill="#f7cdb0" opacity="1.00" d=" M 171.55 309.14 C 172.76 308.83 173.97 308.51 175.19 308.20 C 175.45 313.60 175.44 319.05 174.29 324.36 C 173.63 321.64 173.36 318.85 173.12 316.08 C 172.07 316.62 171.02 317.18 169.98 317.74 C 170.49 314.87 171.14 312.03 171.55 309.14 Z" />
<path fill="#f7cdb0" opacity="1.00" d=" M 130.43 328.95 C 129.26 327.64 129.52 326.74 131.19 326.23 C 131.40 327.26 131.15 328.17 130.43 328.95 Z" />
<path fill="#f7cdb0" opacity="1.00" d=" M 481.88 328.38 C 480.99 330.94 478.65 326.73 481.26 326.95 C 481.41 327.30 481.72 328.02 481.88 328.38 Z" />
<path fill="#f7cdb0" opacity="1.00" d=" M 132.29 333.78 C 133.93 333.65 133.93 337.34 132.29 337.21 C 131.34 336.39 131.34 334.59 132.29 333.78 Z" />
<path fill="#f7cdb0" opacity="1.00" d=" M 171.41 335.79 C 172.40 338.79 172.63 341.95 172.98 345.08 C 166.28 346.93 159.22 347.91 152.36 346.32 C 152.31 343.96 151.77 341.64 150.33 339.74 C 157.13 339.28 163.99 338.18 170.79 339.39 C 171.01 338.19 171.21 336.99 171.41 335.79 M 153.96 346.23 C 159.22 346.80 164.46 346.07 169.49 344.49 C 169.59 343.88 169.80 342.67 169.90 342.06 C 167.36 341.08 164.88 339.20 162.02 339.63 C 158.51 340.51 153.49 341.53 153.96 346.23 Z" />
<path fill="#f7cdb0" opacity="1.00" d=" M 130.46 344.04 C 131.18 344.80 131.43 345.70 131.22 346.74 C 129.54 346.24 129.28 345.33 130.46 344.04 Z" />
<path fill="#f7cdb0" opacity="1.00" d=" M 170.15 374.82 C 170.63 375.02 171.60 375.42 172.09 375.62 L 171.33 376.11 L 170.34 375.70 L 170.15 374.82 Z" />
<path fill="#f7cdb0" opacity="1.00" d=" M 288.23 417.84 C 289.24 417.56 290.16 417.77 290.96 418.47 C 289.71 419.69 288.80 419.48 288.23 417.84 Z" />
<path fill="#f7cdb0" opacity="1.00" d=" M 298.23 418.92 C 299.23 418.61 300.14 418.82 300.96 419.52 C 299.70 420.75 298.79 420.54 298.23 418.92 Z" />
<path fill="#f7cdb0" opacity="1.00" d=" M 413.07 457.07 C 414.17 455.59 415.93 456.82 417.36 456.98 C 413.21 464.33 408.03 471.15 401.70 476.75 C 399.89 478.64 397.13 477.41 394.91 477.33 C 401.69 471.23 406.37 463.22 413.07 457.07 Z" />
<path fill="#f7cdb0" opacity="1.00" d=" M 441.05 461.81 C 441.58 462.06 442.66 462.58 443.20 462.84 C 442.66 462.58 441.58 462.06 441.05 461.81 Z" />
<path fill="#f7cdb0" opacity="1.00" d=" M 330.80 489.18 C 332.05 488.54 333.14 488.76 334.07 489.84 C 332.80 490.51 331.71 490.29 330.80 489.18 Z" />
<path fill="#f7cdb0" opacity="1.00" d=" M 340.66 502.87 C 348.73 497.16 358.75 495.69 368.37 495.06 C 366.45 499.78 361.24 501.64 356.64 502.59 C 351.35 503.40 345.98 502.94 340.66 502.87 Z" />
<path fill="#f7cdb0" opacity="1.00" d=" M 440.04 505.83 L 441.17 505.84 C 441.38 509.10 441.63 512.38 441.56 515.66 C 438.78 513.18 440.37 509.05 440.04 505.83 Z" />
<path fill="#f7cdb0" opacity="1.00" d=" M 272.80 533.11 C 272.84 527.28 272.14 521.37 273.46 515.63 C 274.15 521.45 273.85 527.32 273.95 533.17 L 272.80 533.11 Z" />
<path fill="#f7cdb0" opacity="1.00" d=" M 269.49 517.62 C 270.74 517.92 270.29 520.06 270.42 521.07 C 270.51 521.57 270.01 524.40 269.21 522.93 C 268.82 521.22 268.58 519.18 269.49 517.62 Z" />
<path fill="#f7cdb0" opacity="1.00" d=" M 248.96 520.17 C 249.20 519.62 249.68 518.52 249.93 517.97 C 249.68 518.52 249.20 519.62 248.96 520.17 Z" />
<path fill="#f7cdb0" opacity="1.00" d=" M 238.98 546.18 C 239.22 545.63 239.69 544.54 239.93 543.99 C 239.69 544.54 239.22 545.63 238.98 546.18 Z" />
<path fill="#f7cdb0" opacity="1.00" d=" M 269.56 544.72 C 271.49 549.48 270.72 554.67 269.24 559.43 C 268.90 554.53 269.06 549.60 269.56 544.72 Z" />
<path fill="#f7cdb0" opacity="1.00" d=" M 473.28 577.25 C 482.92 571.74 492.86 566.68 501.80 560.03 C 506.41 569.92 509.64 580.36 513.26 590.64 C 507.37 595.05 500.77 598.42 493.81 600.79 C 487.36 602.82 481.13 606.38 474.15 605.82 C 473.99 606.40 473.66 607.57 473.49 608.16 C 470.96 603.89 469.75 598.99 467.15 594.76 C 464.86 590.98 462.70 587.11 461.14 582.96 C 465.18 581.06 469.36 579.42 473.28 577.25 Z" />
<path fill="#f7cdb0" opacity="1.00" d=" M 259.09 570.05 C 259.23 567.46 260.66 565.25 262.03 563.16 C 263.54 572.02 262.75 581.06 263.02 590.00 C 263.38 599.03 261.68 607.97 262.01 617.00 C 262.37 624.70 260.68 632.30 260.88 640.00 L 259.51 640.00 C 259.53 634.65 259.55 629.28 260.15 623.96 C 261.31 614.29 259.27 604.43 261.45 594.85 C 256.47 593.01 251.56 590.91 247.07 588.05 C 250.22 588.98 253.45 589.60 256.68 590.20 C 257.58 583.50 258.44 576.79 259.09 570.05 Z" />
<path fill="#f7cdb0" opacity="1.00" d=" M 441.99 582.21 C 449.15 578.47 456.02 573.85 464.04 572.13 C 457.93 574.91 451.69 577.76 446.64 582.29 C 448.79 583.72 451.51 584.60 453.08 586.75 C 455.20 591.93 455.57 597.61 455.84 603.14 C 453.80 597.59 452.49 591.82 450.94 586.13 C 447.96 586.04 444.98 585.96 442.01 585.83 C 442.00 584.62 441.99 583.41 441.99 582.21 Z" />
<path fill="#f7cdb0" opacity="1.00" d=" M 238.95 593.48 C 242.55 594.26 245.45 596.72 248.91 597.87 C 251.28 598.67 253.78 598.96 256.23 599.41 C 256.74 605.64 256.34 611.89 255.34 618.06 C 254.12 625.31 254.47 632.69 253.92 640.00 L 252.68 640.00 C 252.76 637.04 252.85 634.08 252.97 631.13 C 252.06 632.58 251.15 634.04 250.23 635.50 C 248.59 632.35 246.99 629.18 245.37 626.02 C 243.64 628.20 241.89 630.38 240.12 632.53 C 238.85 630.09 237.60 627.63 236.34 625.18 C 235.95 626.17 235.56 627.15 235.20 628.16 C 235.65 620.92 236.57 613.72 237.32 606.51 C 237.80 602.16 237.04 597.57 238.95 593.48 Z" />
<path fill="#f7cdb0" opacity="1.00" d=" M 461.44 597.53 C 462.45 599.46 463.37 601.44 464.23 603.44 C 463.63 603.86 462.43 604.71 461.83 605.14 C 461.45 602.62 461.41 600.07 461.44 597.53 Z" />
<path fill="#f7cdb0" opacity="1.00" d=" M 521.08 613.85 C 521.30 614.41 521.75 615.53 521.97 616.09 C 521.75 615.53 521.30 614.41 521.08 613.85 Z" />
<path fill="#f7cdb0" opacity="1.00" d=" M 525.07 625.87 C 525.29 626.43 525.73 627.55 525.95 628.11 C 525.73 627.55 525.29 626.43 525.07 625.87 Z" />
<path fill="#f7cdb0" opacity="1.00" d=" M 528.12 635.96 C 528.37 636.51 528.86 637.61 529.10 638.16 C 528.86 637.61 528.37 636.51 528.12 635.96 Z" />
</g>
<g id="#fdf8eeff">
<path fill="#fdf8ee" opacity="1.00" d=" M 345.75 185.00 C 346.27 183.43 346.88 181.89 347.50 180.35 C 353.98 183.40 360.63 186.17 366.97 189.49 C 367.47 189.67 368.47 190.04 368.97 190.23 L 369.85 190.24 C 370.31 190.49 371.25 191.00 371.71 191.26 C 373.46 191.20 375.22 191.23 376.97 191.13 C 375.53 188.34 373.89 185.61 373.20 182.50 C 382.09 186.86 391.28 190.85 401.08 192.64 C 404.35 193.14 407.61 192.42 410.82 191.87 C 416.50 197.01 422.37 201.93 428.63 206.36 C 430.32 207.55 432.31 208.20 434.25 208.91 C 434.53 204.72 433.78 200.57 433.79 196.39 C 434.84 196.92 435.83 197.56 436.74 198.33 C 443.65 205.41 450.07 212.99 455.66 221.16 L 455.82 221.91 C 456.00 231.08 459.23 240.29 465.10 247.38 C 466.92 249.70 468.63 252.10 470.39 254.47 C 468.81 254.70 467.24 254.94 465.68 255.18 C 468.93 261.22 472.46 267.21 473.75 274.05 C 475.36 278.63 478.41 282.51 481.29 286.37 C 481.23 286.64 481.11 287.17 481.05 287.44 C 479.89 290.57 481.14 293.80 481.26 296.99 C 481.54 301.41 480.35 305.76 478.86 309.88 C 476.92 315.07 476.16 320.67 473.67 325.67 C 470.74 331.63 467.79 337.60 464.29 343.25 C 458.55 352.88 450.40 360.68 443.14 369.12 C 434.43 377.56 424.62 384.79 414.60 391.59 C 405.19 398.08 394.24 401.75 384.39 407.44 C 382.62 408.30 381.23 409.96 381.26 412.02 C 380.88 418.76 380.90 425.67 382.82 432.20 C 383.44 434.37 384.68 436.46 386.68 437.63 C 392.50 440.90 397.38 445.93 400.20 452.01 C 397.38 456.77 393.38 460.73 388.76 463.74 C 378.69 470.47 368.37 477.31 356.65 480.76 C 340.95 484.32 323.05 482.17 310.43 471.53 C 308.10 469.59 305.15 466.73 306.15 463.42 C 312.29 458.35 318.19 452.42 320.68 444.65 C 322.43 439.81 320.50 434.78 319.65 429.98 C 318.99 427.11 319.70 424.19 319.92 421.32 C 313.59 420.90 307.20 420.47 300.96 419.52 C 300.14 418.82 299.23 418.61 298.23 418.92 C 295.84 419.14 293.19 419.50 290.96 418.47 C 290.16 417.77 289.24 417.56 288.23 417.84 C 283.30 418.32 278.43 416.97 273.54 416.45 C 264.71 415.49 256.27 412.63 247.76 410.24 C 236.23 406.87 225.28 401.52 215.56 394.46 C 213.58 393.09 211.80 391.45 210.29 389.58 C 213.89 390.14 217.39 391.25 221.01 391.73 C 224.14 391.60 226.96 389.96 229.90 389.02 C 236.15 386.64 243.54 385.55 247.89 379.92 C 253.17 373.09 259.29 366.09 260.43 357.19 C 261.64 349.07 262.39 340.19 258.27 332.73 C 255.09 327.04 252.27 321.00 247.91 316.09 C 236.67 304.78 218.79 301.83 203.96 306.90 C 196.96 309.98 189.47 313.66 185.45 320.52 C 181.79 326.68 178.61 333.14 176.10 339.86 C 175.91 340.35 175.53 341.31 175.34 341.79 C 172.58 336.41 173.56 330.11 174.29 324.36 C 175.44 319.05 175.45 313.60 175.19 308.20 C 173.97 308.51 172.76 308.83 171.55 309.14 C 172.40 303.69 174.97 298.72 176.43 293.43 C 178.87 287.87 180.15 281.91 182.11 276.18 C 182.78 274.00 183.56 271.82 183.74 269.53 C 183.94 267.47 183.54 265.41 183.32 263.37 C 184.14 257.70 186.84 252.22 189.38 247.10 C 189.59 246.62 190.01 245.66 190.22 245.18 C 191.40 239.34 193.73 233.73 196.36 228.38 C 198.02 224.21 198.97 219.74 201.35 215.87 C 202.64 218.19 203.86 220.54 205.09 222.89 C 210.76 219.79 212.97 213.47 216.47 208.44 C 218.74 205.11 220.26 201.20 223.32 198.47 C 224.21 203.58 224.29 208.76 224.26 213.93 C 224.81 213.85 225.92 213.67 226.47 213.58 C 228.74 208.39 233.12 204.43 234.96 199.03 C 235.34 197.94 235.98 197.02 236.89 196.29 C 238.08 200.85 238.97 205.50 240.49 209.99 C 241.76 209.79 243.14 209.94 244.32 209.34 C 246.66 204.88 248.01 199.94 250.80 195.70 C 252.21 200.12 253.38 204.81 256.65 208.28 C 258.74 203.18 259.83 197.73 262.13 192.72 C 263.81 198.23 265.83 203.60 268.85 208.53 C 269.27 209.39 269.69 210.24 270.11 211.10 C 270.91 211.13 272.51 211.20 273.31 211.23 C 273.62 208.80 273.87 206.36 274.05 203.92 C 274.15 203.15 274.36 201.60 274.47 200.83 C 274.98 199.74 275.24 198.53 274.94 197.34 C 274.38 193.44 275.37 189.58 276.21 185.80 C 280.72 191.40 284.65 197.42 288.90 203.21 C 291.00 206.04 293.29 209.02 296.60 210.50 C 299.00 211.35 301.61 211.21 304.13 211.41 C 304.38 204.18 303.77 196.90 304.97 189.73 C 313.18 194.18 320.47 201.12 330.11 202.25 C 330.60 196.15 327.79 190.54 327.29 184.54 C 334.13 187.29 340.57 191.74 348.16 191.99 C 347.47 189.62 346.50 187.34 345.75 185.00 M 379.02 220.29 L 378.32 219.69 L 377.26 219.98 L 376.97 220.86 C 372.45 221.12 368.20 222.88 363.81 223.84 C 360.42 224.71 356.53 225.40 354.21 228.29 C 352.45 230.89 353.74 234.03 354.19 236.82 C 360.05 238.98 366.23 237.26 372.01 235.72 L 372.73 236.28 L 373.77 235.93 L 374.02 235.05 C 380.77 234.58 387.22 232.27 393.81 230.86 C 396.42 230.14 399.24 229.97 401.66 228.67 C 405.19 225.84 404.81 219.40 400.71 217.28 C 393.35 216.24 386.13 218.76 379.02 220.29 M 340.07 222.06 C 339.10 227.24 339.75 232.51 340.47 237.66 C 340.66 241.32 346.50 242.06 347.60 238.55 C 348.31 232.82 345.71 227.39 343.74 222.17 C 342.51 222.13 341.29 222.09 340.07 222.06 M 276.37 236.65 C 276.36 239.31 276.20 241.99 276.46 244.65 C 276.97 246.59 279.12 247.32 280.61 248.38 C 280.74 244.21 281.72 237.95 276.37 236.65 M 229.00 246.24 L 228.28 245.66 L 227.24 245.98 L 226.97 246.86 C 217.15 247.76 207.66 250.61 198.20 253.24 C 196.10 253.83 193.50 254.61 193.30 257.20 C 193.25 260.42 194.49 263.52 195.53 266.54 C 198.78 268.72 202.74 267.15 206.08 266.06 C 209.58 264.69 213.32 264.20 217.01 263.66 L 217.73 264.23 L 218.77 263.90 L 219.03 263.02 C 222.06 263.01 225.03 262.31 227.99 261.74 L 228.70 262.33 L 229.76 262.02 L 230.03 261.14 C 234.33 260.72 238.56 259.69 242.77 258.74 C 245.61 258.09 248.69 256.13 248.83 252.92 C 249.16 249.71 248.42 245.25 244.81 244.23 C 239.48 243.67 234.20 245.25 229.00 246.24 M 391.44 259.47 C 387.47 261.53 388.53 268.61 393.08 269.31 C 398.12 270.76 400.89 263.53 397.84 260.16 C 396.07 258.79 393.47 258.67 391.44 259.47 M 303.61 268.80 C 302.35 269.22 301.25 270.37 300.86 271.63 C 301.95 273.75 305.74 269.84 303.61 268.80 M 398.88 276.82 C 394.45 278.97 392.29 283.64 389.16 287.18 C 384.06 293.17 381.74 301.03 381.48 308.79 C 380.28 318.64 383.56 328.35 387.78 337.10 C 390.16 342.12 393.87 346.50 398.60 349.44 C 402.77 352.02 406.78 355.13 411.59 356.45 C 424.16 359.13 437.29 358.28 449.58 354.63 C 451.48 353.15 452.78 351.08 454.33 349.27 C 458.01 344.64 462.51 340.67 465.71 335.66 C 471.55 324.65 473.79 310.67 467.72 299.26 L 466.87 299.02 C 466.85 297.81 466.83 296.60 466.82 295.40 C 464.17 290.52 461.96 285.12 457.53 281.54 C 454.55 279.17 452.36 275.98 449.47 273.55 C 441.77 269.22 432.64 268.63 424.01 268.17 C 414.76 267.74 406.83 272.92 398.88 276.82 M 311.17 277.43 C 310.91 280.95 310.03 285.65 314.03 287.43 C 315.26 283.94 314.51 279.47 311.17 277.43 M 230.39 288.24 C 226.84 290.89 228.18 297.91 233.01 297.94 C 235.66 297.79 239.32 296.13 238.87 292.93 C 239.49 288.51 233.77 286.18 230.39 288.24 M 320.84 374.81 C 320.44 375.49 319.65 376.84 319.26 377.52 C 326.28 377.62 333.15 375.81 340.15 375.57 C 339.93 374.21 339.79 372.84 339.42 371.53 C 333.08 370.69 326.81 372.95 320.84 374.81 Z" />
<path fill="#fdf8ee" opacity="1.00" d=" M 520.78 281.37 L 521.38 280.58 C 521.36 283.68 521.74 286.95 520.62 289.92 C 520.43 290.40 520.04 291.38 519.85 291.87 C 519.33 297.66 515.79 302.82 512.38 307.39 C 503.96 316.49 493.80 324.49 481.88 328.38 C 481.72 328.02 481.41 327.30 481.26 326.95 C 481.29 322.13 483.68 317.55 484.80 312.87 C 487.14 304.78 487.69 296.28 487.87 287.90 C 492.48 287.80 497.21 287.15 501.06 284.40 C 505.48 285.09 509.43 287.27 513.22 289.54 C 515.95 287.03 518.60 284.39 520.78 281.37 Z" />
<path fill="#fdf8ee" opacity="1.00" d=" M 138.90 311.91 C 142.89 308.02 148.86 308.31 154.01 308.60 C 155.92 308.65 157.18 310.35 158.38 311.62 C 163.97 318.90 169.41 326.66 171.41 335.79 C 171.21 336.99 171.01 338.19 170.79 339.39 C 163.99 338.18 157.13 339.28 150.33 339.74 C 151.77 341.64 152.31 343.96 152.36 346.32 C 159.22 347.91 166.28 346.93 172.98 345.08 C 176.13 355.14 181.61 364.21 186.68 373.38 C 182.75 376.84 176.88 376.84 172.09 375.62 C 171.60 375.42 170.63 375.02 170.15 374.82 C 167.89 374.93 165.74 374.06 163.59 373.50 C 155.24 371.02 146.79 367.74 140.47 361.53 C 136.19 357.58 131.53 352.90 131.22 346.74 C 131.43 345.70 131.18 344.80 130.46 344.04 C 129.12 339.27 129.11 333.72 130.43 328.95 C 131.15 328.17 131.40 327.26 131.19 326.23 C 131.57 320.68 135.02 315.71 138.90 311.91 M 132.29 333.78 C 131.34 334.59 131.34 336.39 132.29 337.21 C 133.93 337.34 133.93 333.65 132.29 333.78 Z" />
<path fill="#fdf8ee" opacity="1.00" d=" M 407.01 456.06 C 408.07 454.32 408.32 451.76 410.18 450.71 C 414.42 451.06 418.04 453.56 422.06 454.74 C 428.56 456.57 434.95 458.88 441.05 461.81 C 441.58 462.06 442.66 462.58 443.20 462.84 C 449.44 465.43 454.73 469.80 459.56 474.44 C 464.99 479.64 468.41 486.42 472.27 492.77 C 477.08 500.81 480.77 509.46 485.53 517.53 C 489.93 525.11 493.03 533.49 498.73 540.27 C 500.42 542.75 503.26 545.48 502.20 548.77 C 497.21 554.22 490.53 557.74 484.06 561.14 C 477.32 564.68 471.38 569.78 464.04 572.13 C 456.02 573.85 449.15 578.47 441.99 582.21 C 441.99 583.41 442.00 584.62 442.01 585.83 C 444.98 585.96 447.96 586.04 450.94 586.13 C 452.49 591.82 453.80 597.59 455.84 603.14 C 458.62 615.30 461.68 627.51 462.47 640.00 L 260.88 640.00 C 260.68 632.30 262.37 624.70 262.01 617.00 C 261.68 607.97 263.38 599.03 263.02 590.00 C 262.75 581.06 263.54 572.02 262.03 563.16 C 260.66 565.25 259.23 567.46 259.09 570.05 C 258.44 576.79 257.58 583.50 256.68 590.20 C 253.45 589.60 250.22 588.98 247.07 588.05 C 241.26 584.59 235.36 581.18 230.05 576.97 C 228.31 575.36 225.49 573.03 227.22 570.45 C 231.63 562.61 235.66 554.55 238.98 546.18 C 239.22 545.63 239.69 544.54 239.93 543.99 C 242.83 536.00 245.84 528.06 248.96 520.17 C 249.20 519.62 249.68 518.52 249.93 517.97 C 253.58 509.67 256.40 500.95 261.07 493.13 C 266.73 483.79 276.40 478.15 285.14 472.11 C 289.68 469.03 293.85 465.30 299.02 463.30 C 300.79 468.35 302.51 473.70 306.51 477.50 C 313.09 483.89 322.03 487.14 330.80 489.18 C 331.71 490.29 332.80 490.51 334.07 489.84 C 342.82 490.61 351.94 491.08 360.41 488.37 C 369.97 484.28 379.49 479.94 388.16 474.15 C 395.42 469.38 403.17 464.15 407.01 456.06 M 413.07 457.07 C 406.37 463.22 401.69 471.23 394.91 477.33 C 397.13 477.41 399.89 478.64 401.70 476.75 C 408.03 471.15 413.21 464.33 417.36 456.98 C 415.93 456.82 414.17 455.59 413.07 457.07 M 340.66 502.87 C 345.98 502.94 351.35 503.40 356.64 502.59 C 361.24 501.64 366.45 499.78 368.37 495.06 C 358.75 495.69 348.73 497.16 340.66 502.87 M 440.04 505.83 C 440.37 509.05 438.78 513.18 441.56 515.66 C 441.63 512.38 441.38 509.10 441.17 505.84 L 440.04 505.83 M 272.80 533.11 L 273.95 533.17 C 273.85 527.32 274.15 521.45 273.46 515.63 C 272.14 521.37 272.84 527.28 272.80 533.11 M 269.49 517.62 C 268.58 519.18 268.82 521.22 269.21 522.93 C 270.01 524.40 270.51 521.57 270.42 521.07 C 270.29 520.06 270.74 517.92 269.49 517.62 M 269.56 544.72 C 269.06 549.60 268.90 554.53 269.24 559.43 C 270.72 554.67 271.49 549.48 269.56 544.72 Z" />
<path fill="#fdf8ee" opacity="1.00" d=" M 493.81 600.79 C 500.77 598.42 507.37 595.05 513.26 590.64 C 515.84 598.38 518.66 606.05 521.08 613.85 C 521.30 614.41 521.75 615.53 521.97 616.09 C 523.07 619.33 524.14 622.57 525.07 625.87 C 525.29 626.43 525.73 627.55 525.95 628.11 C 526.72 630.71 527.47 633.32 528.12 635.96 C 528.37 636.51 528.86 637.61 529.10 638.16 C 529.14 638.62 529.21 639.54 529.24 640.00 L 487.39 640.00 C 482.61 629.45 477.93 618.85 473.49 608.16 C 473.66 607.57 473.99 606.40 474.15 605.82 C 481.13 606.38 487.36 602.82 493.81 600.79 Z" />
<path fill="#fdf8ee" opacity="1.00" d=" M 235.20 628.16 C 235.56 627.15 235.95 626.17 236.34 625.18 C 237.60 627.63 238.85 630.09 240.12 632.53 C 241.89 630.38 243.64 628.20 245.37 626.02 C 246.99 629.18 248.59 632.35 250.23 635.50 C 251.15 634.04 252.06 632.58 252.97 631.13 C 252.85 634.08 252.76 637.04 252.68 640.00 L 234.56 640.00 C 234.61 636.04 234.70 632.08 235.20 628.16 Z" />
</g>
</svg>
